<svg width="150" height="40" viewBox="0 0 150 40" fill="none" xmlns="http://www.w3.org/2000/svg">
<path d="M25.8328 24.6869C26.3351 25.2942 26.9346 25.819 27.6082 26.2411C28.1287 26.5709 28.7331 26.7538 29.3541 26.7695C29.8396 26.7885 30.3147 26.6297 30.6856 26.3244C30.8534 26.1865 30.9874 26.0138 31.0775 25.8189C31.1677 25.6241 31.2118 25.412 31.2067 25.1984C31.2219 24.9844 31.1902 24.7696 31.1135 24.5684C31.0368 24.3672 30.917 24.1842 30.762 24.0315C30.461 23.7594 29.7814 23.4785 28.7231 23.1886C27.2757 22.787 26.2503 22.2662 25.6469 21.6261C25.0091 20.891 24.6851 19.9463 24.7414 18.986C24.716 18.3321 24.8292 17.6801 25.0739 17.0706C25.3187 16.4611 25.6897 15.907 26.1639 15.4428C26.6519 14.9832 27.2309 14.6249 27.8657 14.3898C28.5005 14.1546 29.1779 14.0475 29.8566 14.075C30.6436 14.0703 31.4266 14.1836 32.1781 14.4112C32.9233 14.6409 33.626 14.985 34.2594 15.4306L32.9926 18.3994C32.5751 18.0264 32.0986 17.721 31.5814 17.4951C31.1302 17.2985 30.642 17.1947 30.1476 17.1904C29.7223 17.1705 29.3032 17.2956 28.9628 17.5443C28.8183 17.6516 28.7019 17.7906 28.623 17.9499C28.5442 18.1092 28.505 18.2844 28.5088 18.4612C28.4998 18.6333 28.5307 18.8052 28.5993 18.9641C28.6679 19.123 28.7724 19.2649 28.905 19.3792C29.3692 19.6945 29.894 19.9158 30.4479 20.0299L30.6294 20.083C32.2733 20.5364 33.3559 21.0362 33.877 21.5825C34.2377 21.9693 34.5102 22.4259 34.6766 22.9224C34.8652 23.4804 34.9577 24.0649 34.9503 24.6523C34.9827 25.367 34.8616 26.0805 34.5949 26.7472C34.3281 27.4139 33.9215 28.0192 33.4009 28.5246C32.3676 29.4994 30.9912 29.9875 29.2716 29.9891C28.3039 30.0017 27.344 29.8184 26.4529 29.4509C25.5351 29.0444 24.7048 28.4723 24.0061 27.765L25.8328 24.6869Z" fill="#53575A"/>
<path d="M47.8089 24.3858C47.8125 25.1203 47.6663 25.8482 47.3788 26.5274C46.9546 27.5517 46.2256 28.4295 45.2852 29.0482C44.3448 29.6669 43.2358 29.9983 42.1005 30C40.9652 30.0017 39.8552 29.6735 38.9128 29.0576C37.9705 28.4417 37.2387 27.5662 36.8113 26.5431C36.2481 25.1557 36.2481 23.612 36.8113 22.2246C37.0951 21.5433 37.5167 20.9244 38.0511 20.4046C38.5671 19.8834 39.1898 19.4734 39.8791 19.2012C41.2999 18.6618 42.8773 18.6618 44.2981 19.2012C44.9874 19.4747 45.6113 19.8834 46.1309 20.4019C46.669 20.9236 47.0947 21.5443 47.3831 22.2279C47.6716 22.9115 47.817 23.6442 47.8109 24.3831M44.2274 24.3831C44.2655 23.7224 44.0611 23.07 43.6505 22.5423C43.4635 22.3435 43.2381 22.1825 42.9871 22.0685C42.736 21.9545 42.4644 21.8896 42.1876 21.8777C41.9109 21.8658 41.6344 21.9071 41.374 21.9991C41.1137 22.0911 40.8745 22.2322 40.6701 22.4141C40.6228 22.4566 40.578 22.4998 40.5347 22.5458C40.1256 23.074 39.9229 23.7265 39.9627 24.3866C39.9246 25.0444 40.1249 25.6944 40.5287 26.2235C40.9124 26.628 41.4457 26.8676 42.0111 26.8897C42.5766 26.9119 43.1279 26.7146 43.5438 26.3414C43.5848 26.3039 43.6252 26.2646 43.6651 26.2235C44.0723 25.6959 44.2749 25.0453 44.2371 24.3866" fill="#53575A"/>
<path d="M53.5995 13.5466H49.9861V29.5799H53.5995V13.5466Z" fill="#53575A"/>
<path d="M67.1946 24.3858C67.2007 25.12 67.0566 25.848 66.7706 26.5274C66.3465 27.5517 65.6174 28.4295 64.677 29.0482C63.7366 29.6669 62.6277 29.9983 61.4923 30C60.357 30.0017 59.247 29.6735 58.3047 29.0576C57.3623 28.4417 56.6306 27.5662 56.2032 26.5431C55.64 25.1557 55.64 23.612 56.2032 22.2246C56.4869 21.5433 56.9085 20.9244 57.443 20.4046C57.9564 19.8846 58.576 19.4746 59.262 19.2012C60.6828 18.6618 62.2602 18.6618 63.6811 19.2012C64.3703 19.4747 64.9942 19.8834 65.5139 20.4019C66.0519 20.9236 66.4776 21.5443 66.7661 22.2279C67.0545 22.9115 67.2 23.6442 67.1938 24.3831M63.6115 24.3831C63.6497 23.7224 63.4452 23.07 63.0347 22.5423C62.8484 22.3428 62.6235 22.1809 62.3729 22.066C62.1223 21.951 61.8509 21.8852 61.5741 21.8722C61.2974 21.8593 61.0207 21.8996 60.7599 21.9906C60.4991 22.0817 60.2594 22.2219 60.0543 22.4031C60.0046 22.4467 59.9573 22.4939 59.9112 22.5423C59.5391 23.0871 59.3402 23.7264 59.3393 24.3804C59.3384 25.0344 59.5357 25.6742 59.9063 26.2199C60.2901 26.6244 60.8234 26.8641 61.3888 26.8862C61.9543 26.9083 62.5056 26.7111 62.9215 26.3379C62.9625 26.3004 63.0029 26.2611 63.0428 26.2199C63.4493 25.692 63.6514 25.0416 63.6136 24.3831" fill="#53575A"/>
<path d="M73.3095 29.5858H69.5234V14.449H73.7436C74.9101 14.4088 76.0776 14.4928 77.2253 14.6994C77.854 14.8443 78.4376 15.1347 78.9263 15.5459C79.4774 16.0146 79.9061 16.6041 80.177 17.2656C80.4715 18.0023 80.6171 18.7874 80.6059 19.5778C80.6224 20.3914 80.4784 21.2006 80.1818 21.9616C79.9178 22.6198 79.4855 23.2017 78.9259 23.6522C78.4912 23.9879 77.9868 24.228 77.4476 24.3559C76.5519 24.5322 75.638 24.6053 74.7247 24.5737H73.3074V29.5858H73.3095ZM73.3095 21.2594H74.0775C75.0498 21.2594 75.7282 21.1227 76.1128 20.8493C76.3181 20.6807 76.478 20.4659 76.5785 20.2236C76.6791 19.9812 76.7172 19.7186 76.6896 19.4587C76.7175 19.2046 76.6801 18.9478 76.5809 18.7113C76.4818 18.4747 76.3238 18.2657 76.1213 18.103C75.744 17.8333 75.0764 17.6991 74.1183 17.7004H73.3079L73.3095 21.2594Z" fill="#80BC00"/>
<path d="M82.4309 29.5846V19.1323H85.8317V21.5959C86.1055 20.8054 86.6044 20.1068 87.2704 19.5813C87.9075 19.1228 88.6844 18.8855 89.4767 18.9074C89.6202 18.9048 89.7638 18.9101 89.9068 18.9231C90.0511 18.9389 90.1978 18.9499 90.3482 18.9703L90.0026 22.3122C89.7959 22.2384 89.5828 22.183 89.3659 22.1467C89.1657 22.1129 88.9628 22.096 88.7596 22.096C88.3795 22.074 87.9992 22.1367 87.6478 22.2792C87.2963 22.4217 86.983 22.6404 86.7315 22.9185C86.2171 23.5892 85.961 24.4143 86.008 25.2499V29.583L82.4309 29.5846Z" fill="#80BC00"/>
<path d="M102.515 24.3858C102.519 25.3045 102.289 26.2098 101.847 27.0215C101.404 27.8333 100.763 28.5264 99.9795 29.0396C99.196 29.5528 98.2946 29.8702 97.3549 29.9637C96.4153 30.0572 95.4664 29.9238 94.5923 29.5755C93.9008 29.2947 93.2758 28.879 92.7559 28.354C92.2228 27.84 91.8025 27.2262 91.5202 26.5497C90.9594 25.1619 90.9594 23.6191 91.5202 22.2312C91.8048 21.5501 92.2268 20.9313 92.7612 20.4113C93.2744 19.8894 93.894 19.4775 94.5802 19.2019C96.0015 18.6625 97.5793 18.6625 99.0005 19.2019C99.6894 19.4754 100.313 19.8841 100.832 20.4026C101.371 20.9258 101.798 21.5483 102.088 22.2336C102.373 22.9165 102.517 23.647 102.513 24.3838M98.9285 24.3838C98.967 23.7233 98.763 23.0709 98.3529 22.543C98.1666 22.3435 97.9418 22.1817 97.6912 22.0667C97.4406 21.9517 97.1691 21.8859 96.8923 21.873C96.6156 21.8601 96.3389 21.9003 96.0781 21.9914C95.8174 22.0825 95.5776 22.2226 95.3725 22.4038C95.3228 22.4475 95.2755 22.4947 95.2294 22.543C94.8573 23.0878 94.6584 23.7271 94.6575 24.3811C94.6567 25.0352 94.8539 25.675 95.2246 26.2207C95.608 26.6248 96.1408 26.8643 96.7058 26.8864C97.2708 26.9085 97.8217 26.7115 98.2373 26.3386C98.2777 26.2993 98.3182 26.2623 98.3586 26.2207C98.7672 25.6938 98.9696 25.0426 98.9293 24.3838" fill="#80BC00"/>
<path d="M105.146 29.5798V21.7385H103.619V19.1322H105.146V16.0195H108.7V19.1322H110.229V21.7385H108.7V29.5798H105.146Z" fill="#80BC00"/>
<path d="M122.505 25.0896H114.724C114.685 25.7631 114.901 26.4271 115.33 26.9567C115.545 27.1799 115.808 27.3544 116.1 27.4679C116.392 27.5814 116.706 27.631 117.02 27.6133C117.501 27.6293 117.978 27.5208 118.402 27.2988C118.782 27.0824 119.081 26.7547 119.257 26.3626L121.971 27.48C121.646 28.2792 121.035 28.937 120.25 29.3314C119.312 29.79 118.272 30.0137 117.222 29.9821C115.441 29.9821 114.011 29.477 112.935 28.4668C112.394 27.9465 111.971 27.322 111.692 26.6333C111.414 25.9446 111.286 25.207 111.318 24.4676C111.294 23.7215 111.425 22.9784 111.703 22.2826C111.981 21.5869 112.4 20.9527 112.935 20.418C113.464 19.8891 114.1 19.4727 114.803 19.1952C115.505 18.9177 116.26 18.7852 117.018 18.806C117.77 18.7715 118.52 18.9005 119.214 19.1836C119.908 19.4668 120.529 19.8969 121.03 20.4428C122.014 21.531 122.505 23.0218 122.505 24.915V25.0896ZM118.955 23.0121C118.913 22.4753 118.678 21.97 118.291 21.5849C118.111 21.409 117.895 21.2706 117.658 21.1781C117.421 21.0855 117.167 21.0408 116.911 21.0467C116.656 21.034 116.4 21.0709 116.159 21.1552C115.918 21.2395 115.697 21.3695 115.509 21.5377C115.123 21.9459 114.881 22.4625 114.816 23.0133H118.955L118.955 23.0121Z" fill="#80BC00"/>
<path d="M131.915 22.5657C131.618 22.2843 131.277 22.0504 130.904 21.873C130.582 21.7318 130.231 21.661 129.877 21.6654C129.555 21.6523 129.234 21.7107 128.939 21.8359C128.643 21.9612 128.381 22.1501 128.171 22.3884C127.725 22.9486 127.501 23.6464 127.54 24.3542C127.503 25.0496 127.738 25.7328 128.196 26.2674C128.42 26.5054 128.695 26.6928 129.001 26.8163C129.307 26.9398 129.637 26.9964 129.968 26.9821C130.324 26.9834 130.675 26.9069 130.997 26.7584C131.347 26.589 131.659 26.3536 131.915 26.0657V29.2621C131.51 29.4999 131.075 29.6849 130.62 29.8125C130.186 29.9308 129.737 29.9902 129.286 29.989C128.572 30.014 127.861 29.8887 127.201 29.6217C126.542 29.3548 125.949 28.9525 125.464 28.4423C124.484 27.4107 123.997 26.0543 124.002 24.3731C123.941 22.8977 124.477 21.4579 125.495 20.3628C125.982 19.8516 126.576 19.448 127.236 19.1795C127.897 18.9109 128.61 18.7837 129.326 18.8063C129.8 18.8008 130.273 18.8529 130.733 18.9612C131.152 19.0643 131.551 19.2303 131.917 19.4534V22.5657H131.915Z" fill="#80BC00"/>
<path d="M134.685 29.5798V21.7385H133.158V19.1322H134.685V16.0195H138.238V19.1322H139.768V21.7385H138.238V29.5798H134.685Z" fill="#80BC00"/>
<path d="M16.8702 16.6982C16.892 17.6062 16.5424 18.4856 15.8982 19.1431C15.254 19.8007 14.3678 20.1826 13.4342 20.2052C12.5007 20.1824 11.6147 19.8004 10.9705 19.1429C10.3263 18.4854 9.97666 17.6062 9.99826 16.6982C9.97666 15.7902 10.3263 14.911 10.9705 14.2535C11.6147 13.596 12.5007 13.2139 13.4342 13.1912C14.3679 13.2135 15.2542 13.5955 15.8984 14.253C16.5427 14.9106 16.8922 15.7901 16.8702 16.6982Z" fill="#53575A"/>
<path d="M17.5215 21.4555H13.4355C10.8678 21.4555 8.77796 19.321 8.77796 16.7041C8.77796 14.0872 10.8695 11.9527 13.4355 11.9527C14.6964 11.9804 15.8946 12.4929 16.7679 13.3779C17.6411 14.263 18.1182 15.4486 18.0947 16.675V21.0761L19.9873 23.0124V16.6982C19.9885 13.0025 17.0554 10.0105 13.4355 10.0105C9.81562 10.0105 6.88696 13.0025 6.88696 16.6982C6.88696 20.394 9.81886 23.386 13.4355 23.386H19.4088L17.5215 21.4555Z" fill="#80BC00"/>
<path d="M142.706 14.9769C142.974 15.2607 143.12 15.6339 143.113 16.0191C143.117 16.214 143.081 16.4077 143.007 16.5889C142.933 16.7701 142.823 16.9352 142.683 17.0748C142.55 17.2096 142.39 17.3172 142.213 17.3915C142.037 17.4657 141.847 17.5051 141.655 17.5073C141.459 17.5068 141.266 17.4662 141.088 17.3883C140.91 17.3104 140.751 17.1969 140.621 17.0551C140.352 16.7738 140.201 16.4035 140.201 16.0187C140.201 15.6195 140.361 15.2359 140.646 14.9486C140.775 14.8146 140.932 14.708 141.106 14.6357C141.28 14.5633 141.467 14.5266 141.656 14.5279C141.854 14.5266 142.05 14.5659 142.231 14.6432C142.412 14.7205 142.574 14.8341 142.707 14.9765M140.831 15.1396C140.596 15.3755 140.466 15.6915 140.467 16.0199C140.464 16.3333 140.586 16.6356 140.808 16.8629C140.914 16.9794 141.044 17.0729 141.19 17.1372C141.336 17.2016 141.494 17.2354 141.654 17.2364C141.812 17.2356 141.967 17.2038 142.112 17.143C142.257 17.0822 142.388 16.9936 142.497 16.8825C142.611 16.7679 142.7 16.6325 142.761 16.4841C142.821 16.3356 142.85 16.1771 142.847 16.0176C142.852 15.7018 142.733 15.396 142.513 15.1636C142.405 15.0481 142.273 14.9559 142.127 14.8928C141.98 14.8296 141.821 14.7971 141.661 14.7972C141.506 14.7954 141.352 14.8251 141.209 14.8842C141.066 14.9434 140.937 15.0307 140.83 15.1408M141.683 15.1711C142.143 15.1711 142.375 15.3366 142.375 15.6429C142.378 15.7431 142.345 15.8414 142.284 15.9216C142.222 16.0018 142.134 16.0592 142.034 16.0844L142.398 16.8027H141.912L141.611 16.1532H141.483V16.8027H141.043V15.1707L141.683 15.1711ZM141.481 15.887H141.639C141.821 15.887 141.925 15.8182 141.925 15.6755C141.925 15.5328 141.826 15.4506 141.615 15.4506H141.483V15.887H141.481Z" fill="#53575A"/>
</svg>
